<svg xmlns="http://www.w3.org/2000/svg" width="528.666" height="493.334" viewBox="0 0 528.666 493.334">
  <g id="Group_2" data-name="Group 2" transform="translate(-900.333 -293.333)">
    <path id="Facebook_Messenger-Black-Logo.wine" d="M264.333,0C115.413,0,0,101.795,0,239.275,0,311.191,31.592,373.33,83.023,416.262a19.372,19.372,0,0,1,7.127,14.046l1.436,43.874c.479,14,15.956,23.079,29.678,17.47l52.441-21.59a22.494,22.494,0,0,1,14.094-.993,306.869,306.869,0,0,0,76.534,9.48c148.92,0,264.333-101.795,264.333-239.275S413.254,0,264.333,0ZM423.04,184.084,345.389,299.031c-12.339,18.264-38.826,22.831-57.334,9.877l-61.749-43.229a16.792,16.792,0,0,0-19.094.05l-83.4,59.062c-11.116,7.891-25.689-4.566-18.19-15.584L183.273,194.26c12.339-18.264,38.826-22.831,57.334-9.877l61.749,43.229a16.792,16.792,0,0,0,19.094-.05l83.4-59.062C415.966,160.608,430.539,173.066,423.04,184.084Z" transform="translate(900.333 293.333)" fill="#aaa8a8" fill-rule="evenodd"/>
    <rect id="Rectangle_3" data-name="Rectangle 3" width="407" height="200" transform="translate(960 440)" fill="#aaa8a8"/>
  </g>
</svg>
